<svg width="20" height="20" viewBox="0 0 20 20" fill="none" xmlns="http://www.w3.org/2000/svg">
<path d="M18.2653 7.99889C17.9422 6.10437 16.386 4.66214 14.4983 4.66214H14.1326C13.886 2.97243 12.5 1.66675 10.8333 1.66675H9.16665C7.49999 1.66675 6.11393 2.97243 5.85883 4.66214H5.50169C3.61393 4.66214 2.05781 6.10437 1.73468 7.99889C3.59693 8.92908 5.57822 9.52645 7.59352 9.791V9.43258C7.59352 8.99735 7.92516 8.63893 8.34182 8.63893H11.6667C12.0833 8.63893 12.415 8.99735 12.415 9.43258V9.791C14.4303 9.52645 16.403 8.92908 18.2653 7.99889ZM7.09182 4.66214C7.32141 3.67221 8.16325 2.94683 9.16665 2.94683H10.8418C11.8367 2.94683 12.6786 3.67221 12.9252 4.66214H7.09182Z" fill="#7B858F"/>
<path d="M18.3334 9.36426V14.2542C18.3334 16.5071 16.6242 18.3334 14.4983 18.3334H5.50172C3.37587 18.3334 1.66669 16.5071 1.66669 14.2542V9.36426C3.56295 10.2603 5.56124 10.8321 7.58505 11.0796V11.3185C7.58505 12.2316 8.28233 12.9826 9.14968 12.9826H10.8334C11.7007 12.9826 12.398 12.2316 12.398 11.3185V11.0796C14.4303 10.8321 16.4371 10.2603 18.3334 9.36426Z" fill="#BFC6CC"/>
</svg>
