<svg width="24" height="24" viewBox="0 0 24 24" fill="none" xmlns="http://www.w3.org/2000/svg">
<rect width="24" height="24" rx="12" fill="url(#paint0_linear_768_10382)"/>
<path d="M7.81615 6.75545C7.52326 6.46255 7.04838 6.46255 6.75549 6.75545C6.4626 7.04834 6.4626 7.52321 6.75549 7.81611L7.81615 6.75545ZM16.1836 17.2442C16.4765 17.5371 16.9513 17.5371 17.2442 17.2442C17.5371 16.9513 17.5371 16.4764 17.2442 16.1835L16.1836 17.2442ZM6.75549 7.81611L16.1836 17.2442L17.2442 16.1835L7.81615 6.75545L6.75549 7.81611Z" fill="white"/>
<path d="M9.64284 15.964C9.22863 15.964 8.89284 16.2998 8.89284 16.714C8.89284 17.1282 9.22863 17.464 9.64284 17.464L9.64284 15.964ZM16.7139 16.714L16.7139 17.464C17.1281 17.464 17.4639 17.1282 17.4639 16.714L16.7139 16.714ZM17.4639 9.64291C17.4639 9.2287 17.1281 8.89291 16.7139 8.89291C16.2997 8.89291 15.9639 9.2287 15.9639 9.64291H17.4639ZM9.64284 17.464H16.7139L16.7139 15.964H9.64284L9.64284 17.464ZM17.4639 16.714L17.4639 9.64291H15.9639L15.9639 16.714L17.4639 16.714Z" fill="white"/>
<defs>
<linearGradient id="paint0_linear_768_10382" x1="25.0024" y1="1.07143" x2="-5.73112" y2="12.963" gradientUnits="userSpaceOnUse">
<stop stop-color="#FF4242"/>
<stop offset="1" stop-color="#FF426F"/>
</linearGradient>
</defs>
</svg>
