<svg width="24" height="24" viewBox="0 0 24 24" fill="none" xmlns="http://www.w3.org/2000/svg">
<rect width="24" height="24" rx="12" fill="url(#paint0_linear_768_9512)"/>
<path d="M6.75563 16.1836C6.46274 16.4765 6.46274 16.9514 6.75563 17.2443C7.04852 17.5372 7.5234 17.5372 7.81629 17.2443L6.75563 16.1836ZM17.2444 7.81622C17.5373 7.52333 17.5373 7.04845 17.2444 6.75556C16.9515 6.46267 16.4766 6.46267 16.1837 6.75556L17.2444 7.81622ZM7.81629 17.2443L17.2444 7.81622L16.1837 6.75556L6.75563 16.1836L7.81629 17.2443Z" fill="white"/>
<path d="M15.964 14.3571C15.964 14.7713 16.2998 15.1071 16.714 15.1071C17.1283 15.1071 17.464 14.7713 17.464 14.3571L15.964 14.3571ZM16.714 7.286L17.464 7.286C17.464 6.87179 17.1283 6.536 16.714 6.536L16.714 7.286ZM9.64297 6.536C9.22876 6.536 8.89297 6.87178 8.89297 7.286C8.89297 7.70021 9.22876 8.036 9.64297 8.036L9.64297 6.536ZM17.464 14.3571L17.464 7.286L15.964 7.286L15.964 14.3571L17.464 14.3571ZM16.714 6.536L9.64297 6.536L9.64297 8.036L16.714 8.036L16.714 6.536Z" fill="white"/>
<defs>
<linearGradient id="paint0_linear_768_9512" x1="25.0024" y1="1.07143" x2="-5.73112" y2="12.963" gradientUnits="userSpaceOnUse">
<stop stop-color="#65D83C"/>
<stop offset="1" stop-color="#AFD83C"/>
</linearGradient>
</defs>
</svg>
