<svg width="15" height="16" viewBox="0 0 15 16" fill="none" xmlns="http://www.w3.org/2000/svg">
<path d="M1.5 3.95H2.83333M2.83333 3.95H13.5M2.83333 3.95V13.4C2.83333 13.758 2.97381 14.1014 3.22386 14.3546C3.47391 14.6078 3.81304 14.75 4.16667 14.75H10.8333C11.187 14.75 11.5261 14.6078 11.7761 14.3546C12.0262 14.1014 12.1667 13.758 12.1667 13.4V3.95H2.83333ZM4.83333 3.95V2.6C4.83333 2.24196 4.97381 1.89858 5.22386 1.64541C5.47391 1.39223 5.81304 1.25 6.16667 1.25H8.83333C9.18696 1.25 9.52609 1.39223 9.77614 1.64541C10.0262 1.89858 10.1667 2.24196 10.1667 2.6V3.95M6.16667 7.325V11.375M8.83333 7.325V11.375" stroke="#FF4242" stroke-width="1.5" stroke-linecap="round" stroke-linejoin="round"/>
</svg>
