<svg width="24" height="24" viewBox="0 0 24 24" fill="none" xmlns="http://www.w3.org/2000/svg">
<path d="M8 12C8 12.8284 7.32843 13.5 6.5 13.5C5.67157 13.5 5 12.8284 5 12C5 11.1716 5.67157 10.5 6.5 10.5C7.32843 10.5 8 11.1716 8 12Z" fill="#232C34"/>
<path d="M13.5001 12C13.5001 12.8284 12.8285 13.5 12.0001 13.5C11.1716 13.5 10.5001 12.8284 10.5001 12C10.5001 11.1716 11.1716 10.5 12.0001 10.5C12.8285 10.5 13.5001 11.1716 13.5001 12Z" fill="#232C34"/>
<path d="M19.0001 12C19.0001 12.8284 18.3285 13.5 17.5001 13.5C16.6716 13.5 16.0001 12.8284 16.0001 12C16.0001 11.1716 16.6716 10.5 17.5001 10.5C18.3285 10.5 19.0001 11.1716 19.0001 12Z" fill="#232C34"/>
</svg>
