<svg width="9" height="14" viewBox="0 0 9 14" fill="none" xmlns="http://www.w3.org/2000/svg">
<path d="M0.969669 12.4697C0.676776 12.7626 0.676776 13.2374 0.969669 13.5303C1.26256 13.8232 1.73744 13.8232 2.03033 13.5303L0.969669 12.4697ZM7.5 7L8.03033 7.53033C8.17098 7.38968 8.25 7.19891 8.25 7C8.25 6.80109 8.17098 6.61032 8.03033 6.46967L7.5 7ZM2.03033 0.469671C1.73744 0.176777 1.26256 0.176777 0.96967 0.469671C0.676777 0.762564 0.676777 1.23744 0.96967 1.53033L2.03033 0.469671ZM2.03033 13.5303L8.03033 7.53033L6.96967 6.46967L0.969669 12.4697L2.03033 13.5303ZM8.03033 6.46967L2.03033 0.469671L0.96967 1.53033L6.96967 7.53033L8.03033 6.46967Z" fill="#232C34"/>
</svg>
