<svg width="12" height="7" viewBox="0 0 12 7" fill="none" xmlns="http://www.w3.org/2000/svg">
<path d="M1.53033 0.469669C1.23744 0.176776 0.762563 0.176776 0.46967 0.469669C0.176776 0.762563 0.176776 1.23744 0.46967 1.53033L1.53033 0.469669ZM6 6L5.46967 6.53033C5.61032 6.67098 5.80109 6.75 6 6.75C6.19891 6.75 6.38968 6.67098 6.53033 6.53033L6 6ZM11.5303 1.53033C11.8232 1.23744 11.8232 0.762562 11.5303 0.469669C11.2374 0.176776 10.7626 0.176776 10.4697 0.469669L11.5303 1.53033ZM0.46967 1.53033L5.46967 6.53033L6.53033 5.46967L1.53033 0.469669L0.46967 1.53033ZM6.53033 6.53033L11.5303 1.53033L10.4697 0.469669L5.46967 5.46967L6.53033 6.53033Z" fill="#232C34"/>
</svg>
