<svg width="9" height="14" viewBox="0 0 9 14" fill="none" xmlns="http://www.w3.org/2000/svg">
<path d="M8.03033 1.53033C8.32322 1.23744 8.32322 0.762563 8.03033 0.46967C7.73744 0.176777 7.26256 0.176777 6.96967 0.46967L8.03033 1.53033ZM1.5 7L0.96967 6.46967C0.676777 6.76256 0.676777 7.23744 0.96967 7.53033L1.5 7ZM6.96967 13.5303C7.26256 13.8232 7.73744 13.8232 8.03033 13.5303C8.32322 13.2374 8.32322 12.7626 8.03033 12.4697L6.96967 13.5303ZM6.96967 0.46967L0.96967 6.46967L2.03033 7.53033L8.03033 1.53033L6.96967 0.46967ZM0.96967 7.53033L6.96967 13.5303L8.03033 12.4697L2.03033 6.46967L0.96967 7.53033Z" fill="#232C34"/>
</svg>
