<svg width="37" height="36" viewBox="0 0 37 36" fill="none" xmlns="http://www.w3.org/2000/svg">
<g clip-path="url(#clip0_402_3700)">
<path d="M27.7289 0H9.27107C4.42694 0 0.5 3.92694 0.5 8.77107V27.2289C0.5 32.0731 4.42694 36 9.27107 36H27.7289C32.5731 36 36.5 32.0731 36.5 27.2289V8.77107C36.5 3.92694 32.5731 0 27.7289 0Z" fill="url(#paint0_linear_402_3700)"/>
<path d="M15.5661 21.7724L29.2817 18.9282C30.7459 18.6262 31.6835 17.1935 31.3815 15.7293C31.1919 14.8198 30.911 13.956 30.5493 13.1378C28.144 7.70566 22.1746 4.49271 16.1244 5.78842C9.71603 7.16139 5.14064 13.7699 6.12735 20.252C7.24399 27.5698 14.2668 32.3839 21.4231 30.8986C24.78 30.2033 27.6629 28.2405 29.545 25.3751C27.3574 23.939 24.5518 23.7318 22.2237 24.9292C21.6303 25.2347 20.9947 25.4594 20.324 25.5999C16.1314 26.4707 12.016 23.6019 11.4542 19.2758C10.9837 15.6485 13.2871 12.1722 16.8091 11.189C20.0466 10.2866 23.3228 11.6665 25.0329 14.2826L19.7657 15.3746C16.8407 15.9821 14.9586 18.8474 15.5661 21.7724Z" fill="url(#paint1_linear_402_3700)"/>
<path d="M29.5449 25.3752C27.3573 23.939 24.5517 23.7319 22.2236 24.9293C21.6302 25.2348 20.9946 25.4595 20.3239 25.5999C20.3239 25.5999 10.1408 29.3431 6.13074 20.2591C7.25088 27.5734 14.2702 32.3805 21.423 30.8987C24.7799 30.2034 27.6628 28.2405 29.5449 25.3752Z" fill="url(#paint2_linear_402_3700)"/>
<path d="M15.5308 5.93244C24.2286 7.61442 25.0327 14.2826 25.0327 14.2826L19.762 15.3747C16.837 15.9821 14.9549 18.8439 15.5624 21.7725L29.278 18.9282C30.7423 18.6262 31.6798 17.1936 31.3778 15.7293C31.1882 14.8199 30.9073 13.956 30.5456 13.1379C28.0666 7.52663 21.7776 4.28208 15.5308 5.93244Z" fill="url(#paint3_linear_402_3700)"/>
</g>
<defs>
<linearGradient id="paint0_linear_402_3700" x1="-12.2619" y1="36.7789" x2="51.481" y2="-2.13488" gradientUnits="userSpaceOnUse">
<stop stop-color="#005961"/>
<stop offset="1" stop-color="#005965"/>
</linearGradient>
<linearGradient id="paint1_linear_402_3700" x1="5.99427" y1="18.3349" x2="31.4382" y2="18.3349" gradientUnits="userSpaceOnUse">
<stop stop-color="white"/>
<stop offset="1" stop-color="white" stop-opacity="0.5"/>
</linearGradient>
<linearGradient id="paint2_linear_402_3700" x1="7.48553" y1="26.8854" x2="28.935" y2="22.4365" gradientUnits="userSpaceOnUse">
<stop stop-color="white"/>
<stop offset="1" stop-color="white"/>
</linearGradient>
<linearGradient id="paint3_linear_402_3700" x1="24.557" y1="21.533" x2="20.3035" y2="9.83709" gradientUnits="userSpaceOnUse">
<stop stop-color="white"/>
<stop offset="1" stop-color="white" stop-opacity="0.6"/>
</linearGradient>
<clipPath id="clip0_402_3700">
<rect width="36" height="36" fill="white" transform="translate(0.5)"/>
</clipPath>
</defs>
</svg>
