<svg width="24" height="24" viewBox="0 0 24 24" fill="none" xmlns="http://www.w3.org/2000/svg">
<path d="M6.20992 18H17.7299C18.5899 18 19.0499 16.98 18.4799 16.33C18.1499 15.97 17.9699 15.49 17.9699 15V9C17.9699 5.69 15.2799 3 11.9699 3C8.65992 3 5.96992 5.69 5.96992 9V15.01C5.96992 15.5 5.78992 15.97 5.45992 16.34C4.87992 16.98 5.33992 18.01 6.20992 18.01V18Z" stroke="#919BA3" stroke-width="1.5" stroke-miterlimit="10"/>
<path d="M9.96973 20C11.0697 21.1 12.8697 21.1 13.9697 20" stroke="#919BA3" stroke-width="1.5" stroke-miterlimit="10" stroke-linecap="round"/>
<path d="M5.01992 3.70001C3.45992 4.80001 2.62992 7.19001 3.15992 9.03001" stroke="#919BA3" stroke-width="1.5" stroke-miterlimit="10" stroke-linecap="round"/>
<path d="M18.9599 3.70001C20.5199 4.81001 21.3499 7.20001 20.8199 9.04001" stroke="#919BA3" stroke-width="1.5" stroke-miterlimit="10" stroke-linecap="round"/>
</svg>
