<svg width="14" height="14" viewBox="0 0 14 14" fill="none" xmlns="http://www.w3.org/2000/svg">
    <path d="M13.9097 6.69159C13.3604 5.53441 12.7068 4.59066 11.9488 3.86034L11.1538 4.65534C11.8021 5.27488 12.3667 6.08534 12.855 7.09472C11.555 9.78534 9.70971 11.0635 7.18783 11.0635C6.43086 11.0635 5.73362 10.9469 5.09612 10.7138L4.23471 11.5752C5.12013 11.984 6.1045 12.1885 7.18783 12.1885C10.191 12.1885 12.4316 10.6244 13.9097 7.49628C13.9691 7.37048 14 7.23307 14 7.09394C14 6.9548 13.9691 6.8174 13.9097 6.69159ZM12.9164 1.68159L12.2503 1.01472C12.2387 1.0031 12.2249 0.993877 12.2098 0.987586C12.1946 0.981296 12.1783 0.978058 12.1619 0.978058C12.1455 0.978058 12.1292 0.981296 12.114 0.987586C12.0989 0.993877 12.0851 1.0031 12.0735 1.01472L10.3646 2.72284C9.42237 2.24159 8.36346 2.00097 7.18783 2.00097C4.18471 2.00097 1.94408 3.56503 0.465959 6.69316C0.406546 6.81896 0.375732 6.95637 0.375732 7.0955C0.375732 7.23463 0.406546 7.37204 0.465959 7.49784C1.05648 8.74159 1.76742 9.73852 2.59877 10.4886L0.945334 12.1416C0.92191 12.165 0.908752 12.1968 0.908752 12.23C0.908752 12.2631 0.92191 12.2949 0.945334 12.3183L1.61237 12.9853C1.63581 13.0088 1.66759 13.0219 1.70072 13.0219C1.73386 13.0219 1.76564 13.0088 1.78908 12.9853L12.9164 1.85847C12.9281 1.84686 12.9373 1.83307 12.9436 1.8179C12.9499 1.80272 12.9531 1.78646 12.9531 1.77003C12.9531 1.7536 12.9499 1.73734 12.9436 1.72216C12.9373 1.70699 12.9281 1.6932 12.9164 1.68159ZM1.52065 7.09472C2.82221 4.40409 4.66752 3.12597 7.18783 3.12597C8.04002 3.12597 8.81487 3.27222 9.51784 3.56956L8.4194 4.668C7.89919 4.39044 7.30355 4.28743 6.72034 4.37417C6.13714 4.4609 5.59725 4.73278 5.18032 5.14971C4.7634 5.56663 4.49151 6.10652 4.40478 6.68973C4.31805 7.27293 4.42106 7.86858 4.69862 8.38878L3.39518 9.69222C2.67377 9.0555 2.0519 8.19284 1.52065 7.09472ZM5.37533 7.09472C5.37561 6.81919 5.44087 6.54762 5.56582 6.30206C5.69077 6.05649 5.87188 5.84387 6.09445 5.68145C6.31701 5.51904 6.57475 5.41141 6.84672 5.36732C7.11869 5.32322 7.39723 5.34391 7.65971 5.42769L5.4583 7.62909C5.40313 7.45634 5.37514 7.27607 5.37533 7.09472Z" fill="#8C8C8C" />
    <path d="M7.12548 8.84458C7.07141 8.84458 7.01813 8.84208 6.96532 8.83724L6.14001 9.66255C6.6364 9.85265 7.17723 9.8949 7.69712 9.78418C8.217 9.67346 8.69369 9.41452 9.06955 9.03866C9.44541 8.6628 9.70435 8.18611 9.81507 7.66623C9.92578 7.14634 9.88354 6.60551 9.69344 6.10912L8.86813 6.93443C8.87297 6.98724 8.87547 7.04052 8.87547 7.09459C8.87559 7.32443 8.83041 7.55205 8.74251 7.76443C8.65461 7.9768 8.52571 8.16977 8.36318 8.3323C8.20066 8.49482 8.00769 8.62372 7.79532 8.71162C7.58294 8.79953 7.35532 8.84471 7.12548 8.84458Z" fill="#8C8C8C" />
</svg>