<svg width="12" height="12" viewBox="0 0 12 12" fill="none" xmlns="http://www.w3.org/2000/svg">
<path d="M6 0.75C3.10078 0.75 0.75 3.10078 0.75 6C0.75 8.89922 3.10078 11.25 6 11.25C8.89922 11.25 11.25 8.89922 11.25 6C11.25 3.10078 8.89922 0.75 6 0.75ZM6 10.3594C3.59297 10.3594 1.64062 8.40703 1.64062 6C1.64062 3.59297 3.59297 1.64062 6 1.64062C8.40703 1.64062 10.3594 3.59297 10.3594 6C10.3594 8.40703 8.40703 10.3594 6 10.3594Z" fill="#8C8C8C"/>
<path d="M5.4375 8.0625C5.4375 8.21168 5.49676 8.35476 5.60225 8.46025C5.70774 8.56574 5.85082 8.625 6 8.625C6.14918 8.625 6.29226 8.56574 6.39775 8.46025C6.50324 8.35476 6.5625 8.21168 6.5625 8.0625C6.5625 7.91332 6.50324 7.77024 6.39775 7.66475C6.29226 7.55926 6.14918 7.5 6 7.5C5.85082 7.5 5.70774 7.55926 5.60225 7.66475C5.49676 7.77024 5.4375 7.91332 5.4375 8.0625ZM5.71875 6.75H6.28125C6.33281 6.75 6.375 6.70781 6.375 6.65625V3.46875C6.375 3.41719 6.33281 3.375 6.28125 3.375H5.71875C5.66719 3.375 5.625 3.41719 5.625 3.46875V6.65625C5.625 6.70781 5.66719 6.75 5.71875 6.75Z" fill="#8C8C8C"/>
</svg>
