<svg width="14" height="12" viewBox="0 0 14 12" fill="none" xmlns="http://www.w3.org/2000/svg">
    <path d="M13.909 5.59688C12.4277 2.47656 10.1887 0.90625 7.1871 0.90625C4.18398 0.90625 1.94648 2.47656 0.465227 5.59844C0.405814 5.72425 0.375 5.86165 0.375 6.00078C0.375 6.13991 0.405814 6.27732 0.465227 6.40312C1.94648 9.52344 4.18554 11.0938 7.1871 11.0938C10.1902 11.0938 12.4277 9.52344 13.909 6.40156C14.0293 6.14844 14.0293 5.85469 13.909 5.59688V5.59688ZM7.1871 9.96875C4.66679 9.96875 2.82148 8.69062 1.51991 6C2.82148 3.30938 4.66679 2.03125 7.1871 2.03125C9.70741 2.03125 11.5527 3.30938 12.8543 6C11.5543 8.69062 9.70898 9.96875 7.1871 9.96875ZM7.1246 3.25C5.60585 3.25 4.3746 4.48125 4.3746 6C4.3746 7.51875 5.60585 8.75 7.1246 8.75C8.64335 8.75 9.8746 7.51875 9.8746 6C9.8746 4.48125 8.64335 3.25 7.1246 3.25ZM7.1246 7.75C6.15741 7.75 5.3746 6.96719 5.3746 6C5.3746 5.03281 6.15741 4.25 7.1246 4.25C8.09179 4.25 8.8746 5.03281 8.8746 6C8.8746 6.96719 8.09179 7.75 7.1246 7.75Z" fill="#8C8C8C" />
</svg>