<svg width="20" height="20" viewBox="0 0 20 20" fill="none" xmlns="http://www.w3.org/2000/svg">
<path d="M4.20992 16H15.7299C16.5899 16 17.0499 14.98 16.4799 14.33C16.1499 13.97 15.9699 13.49 15.9699 13V7C15.9699 3.69 13.2799 1 9.96992 1C6.65992 1 3.96992 3.69 3.96992 7V13.01C3.96992 13.5 3.78992 13.97 3.45992 14.34C2.87992 14.98 3.33992 16.01 4.20992 16.01V16Z" stroke="#919BA3" stroke-width="1.5" stroke-miterlimit="10"/>
<path d="M7.96973 18C9.06973 19.1 10.8697 19.1 11.9697 18" stroke="#919BA3" stroke-width="1.5" stroke-miterlimit="10" stroke-linecap="round"/>
<path d="M3.01992 1.7002C1.45992 2.8002 0.629916 5.1902 1.15992 7.0302" stroke="#919BA3" stroke-width="1.5" stroke-miterlimit="10" stroke-linecap="round"/>
<path d="M16.9599 1.7002C18.5199 2.8102 19.3499 5.2002 18.8199 7.0402" stroke="#919BA3" stroke-width="1.5" stroke-miterlimit="10" stroke-linecap="round"/>
</svg>
